<svg width="50" height="50" viewBox="0 0 50 50" fill="none" xmlns="http://www.w3.org/2000/svg">
<rect width="49.2857" height="50" rx="24.6429" fill="#FDFDFD" fill-opacity="0.6"/>
<path d="M22.417 17.6557C22.1414 17.4965 21.8293 17.4132 21.5119 17.4143C21.1946 17.4154 20.883 17.5008 20.6085 17.6619C20.334 17.823 20.1061 18.0542 19.9477 18.3324C19.7892 18.6106 19.7058 18.926 19.7057 19.247V30.7549C19.7058 31.0759 19.7892 31.3913 19.9477 31.6695C20.1061 31.9477 20.334 32.1789 20.6085 32.34C20.883 32.5012 21.1946 32.5865 21.5119 32.5876C21.8293 32.5887 22.1414 32.5055 22.417 32.3462L32.3706 26.5914C32.6478 26.431 32.8782 26.1993 33.0384 25.9199C33.1986 25.6404 33.283 25.3231 33.283 25C33.283 24.677 33.1986 24.3597 33.0384 24.0802C32.8782 23.8008 32.6478 23.5691 32.3706 23.4087L22.417 17.6557Z" fill="#1A3E3E"/>
</svg>
