<svg width="20" height="20" viewBox="0 0 20 20" fill="none" xmlns="http://www.w3.org/2000/svg">
<path d="M17.3125 19H2.6875C1.75375 19 1 18.2463 1 17.3125V3.8125C1 2.87875 1.75375 2.125 2.6875 2.125H17.3125C18.2463 2.125 19 2.87875 19 3.8125V17.3125C19 18.2463 18.2463 19 17.3125 19ZM2.6875 3.25C2.3725 3.25 2.125 3.4975 2.125 3.8125V17.3125C2.125 17.6275 2.3725 17.875 2.6875 17.875H17.3125C17.6275 17.875 17.875 17.6275 17.875 17.3125V3.8125C17.875 3.4975 17.6275 3.25 17.3125 3.25H2.6875Z" fill="#FDFDFD"/>
<path d="M6.0625 5.5C5.7475 5.5 5.5 5.2525 5.5 4.9375V1.5625C5.5 1.2475 5.7475 1 6.0625 1C6.3775 1 6.625 1.2475 6.625 1.5625V4.9375C6.625 5.2525 6.3775 5.5 6.0625 5.5ZM13.9375 5.5C13.6225 5.5 13.375 5.2525 13.375 4.9375V1.5625C13.375 1.2475 13.6225 1 13.9375 1C14.2525 1 14.5 1.2475 14.5 1.5625V4.9375C14.5 5.2525 14.2525 5.5 13.9375 5.5ZM18.4375 7.75H1.5625C1.2475 7.75 1 7.5025 1 7.1875C1 6.8725 1.2475 6.625 1.5625 6.625H18.4375C18.7525 6.625 19 6.8725 19 7.1875C19 7.5025 18.7525 7.75 18.4375 7.75Z" fill="#FDFDFD"/>
</svg>
