<svg width="44" height="20" viewBox="0 0 44 20" fill="none" xmlns="http://www.w3.org/2000/svg">
<rect width="44" height="20" rx="4" fill="white"/>
<path d="M10.78 14V8.132H12.244V9.308H12.112C12.288 8.884 12.56 8.564 12.928 8.348C13.304 8.124 13.728 8.012 14.2 8.012C14.672 8.012 15.06 8.1 15.364 8.276C15.668 8.452 15.896 8.72 16.048 9.08C16.2 9.432 16.276 9.88 16.276 10.424V14H14.776V10.496C14.776 10.192 14.736 9.944 14.656 9.752C14.584 9.56 14.468 9.42 14.308 9.332C14.156 9.236 13.96 9.188 13.72 9.188C13.432 9.188 13.18 9.252 12.964 9.38C12.748 9.5 12.58 9.676 12.46 9.908C12.34 10.132 12.28 10.396 12.28 10.7V14H10.78ZM20.6915 14.12C20.0275 14.12 19.4555 13.996 18.9755 13.748C18.4955 13.5 18.1235 13.148 17.8595 12.692C17.6035 12.236 17.4755 11.696 17.4755 11.072C17.4755 10.464 17.5995 9.932 17.8475 9.476C18.1035 9.02 18.4515 8.664 18.8915 8.408C19.3395 8.144 19.8475 8.012 20.4155 8.012C20.9755 8.012 21.4555 8.132 21.8555 8.372C22.2555 8.612 22.5635 8.952 22.7795 9.392C23.0035 9.832 23.1155 10.356 23.1155 10.964V11.408H18.6875V10.544H22.0595L21.8675 10.724C21.8675 10.18 21.7475 9.764 21.5075 9.476C21.2675 9.18 20.9235 9.032 20.4755 9.032C20.1395 9.032 19.8515 9.112 19.6115 9.272C19.3795 9.424 19.1995 9.644 19.0715 9.932C18.9515 10.212 18.8915 10.548 18.8915 10.94V11.024C18.8915 11.464 18.9595 11.828 19.0955 12.116C19.2315 12.404 19.4355 12.62 19.7075 12.764C19.9795 12.908 20.3155 12.98 20.7155 12.98C21.0435 12.98 21.3715 12.932 21.6995 12.836C22.0275 12.732 22.3275 12.572 22.5995 12.356L23.0195 13.364C22.7395 13.596 22.3875 13.78 21.9635 13.916C21.5395 14.052 21.1155 14.12 20.6915 14.12ZM25.8297 14L23.5137 8.132H25.0497L26.6817 12.632H26.4057L28.0617 8.132H29.1177L30.7497 12.632H30.4977L32.1297 8.132H33.5817L31.2777 14H29.9697L28.1937 9.308H28.8777L27.1377 14H25.8297Z" fill="#1A3E3E"/>
</svg>
